<svg width="42" height="42" viewBox="0 0 42 42" fill="none" xmlns="http://www.w3.org/2000/svg">
<path d="M2.00021 39.1426L39.1431 39.1426L39.1431 1.99972L2.00021 1.99972L2.00021 39.1426Z" fill="white" stroke="#DFF1F3" stroke-width="4" stroke-miterlimit="10"/>
<path d="M18.8602 34.5713L22.353 34.5713L22.353 7.77308L18.8602 7.77307L18.8602 34.5713Z" fill="#DFF1F3"/>
<path d="M12.8129 18.0301L23.1206 8L20.6847 5.49667L10.377 15.5268L12.8129 18.0301Z" fill="#DFF1F3"/>
<path d="M28.0751 18.0392L30.5718 15.5967L20.6942 5.50012L18.1975 7.94268L28.0751 18.0392Z" fill="#DFF1F3"/>
<path d="M12.8129 18.0301L23.1206 8L20.6847 5.49667L10.377 15.5268L12.8129 18.0301Z" fill="#DFF1F3"/>
<path d="M28.0751 18.0392L30.5718 15.5967L20.6942 5.50012L18.1975 7.94268L28.0751 18.0392Z" fill="#DFF1F3"/>
</svg>
